<?xml version="1.0" encoding="utf-8"?>
<!-- Generator: Adobe Illustrator 19.2.1, SVG Export Plug-In . SVG Version: 6.00 Build 0)  -->
<svg version="1.1" id="Layer_1" xmlns="http://www.w3.org/2000/svg" xmlns:xlink="http://www.w3.org/1999/xlink" x="0px" y="0px"
	 width="220px" height="72.978px" viewBox="0 0 220 72.978" style="enable-background:new 0 0 220 72.978;" xml:space="preserve">
<style type="text/css">
	.st0{fill:#313131;}
</style>
<g>
	<g>
		<path class="st0" d="M112.114,18.2c-0.256-3.042-2.583-4.754-5.545-4.003c-2.38,0.603-4.365,1.911-6.028,3.703
			c-2.882,3.107-4.895,6.792-6.713,10.565c-1.937,4.019-0.553,6.837,3.686,7.965c-2.135,1.183-4.469,1.446-6.853,1.454
			c-1.992,0.007-3.019-0.922-2.895-3.003c0.195-3.27,0.89-6.425,2.201-9.422c0.859-1.964,1.68-3.927,1.96-6.071
			c0.174-1.336,0.63-2.74-0.932-3.652c-1.537-0.897-2.829-0.161-4.023,0.668c-1.915,1.33-3.426,3.076-4.671,5.05
			c-0.902,1.43-1.475,1.533-2.212-0.243c-1.439-3.467-2.485-4.039-5.441-3.99c-1.32,0.022-2.928,1.322-3.835,0.129
			c-0.787-1.035-0.683-2.752-0.965-4.169c-0.05-0.251-0.054-0.511-0.098-0.764C68.62,5.991,63.16,0.863,56.659,0.144
			C49.958-0.598,43.856,1.602,38.452,5.05c-15.671,10-27.666,23.428-35.859,40.229C0.661,49.24-0.204,53.265,0.04,57.657
			c0.223,4.006,2.166,6.429,5.805,7.9c8.481,3.428,15.87,0.976,22.761-4.096c2.173-1.6,3.517-3.925,4.454-6.465
			c0.479-1.298,0.722-2.606-0.772-3.314c-1.425-0.675-2.189,0.386-2.812,1.485c-0.59,1.041-1.109,2.129-1.769,3.123
			c-2.788,4.198-6.384,7.416-11.429,8.47c-2.349,0.49-4.767,1.38-7.222-0.024c-4.634-2.649-6.31-6.461-5.012-11.941
			c1.543-6.514,4.604-12.35,8.527-17.666c6.153-8.338,12.951-16.154,20.921-22.809c5.29-4.417,11.291-8.014,18.121-9.064
			c8.417-1.295,11.369,1.026,13.84,8.256c0.754,2.206,0.76,4.54,0.704,6.862c-0.023,0.946-0.473,1.523-1.152,2.143
			c-6.784,6.199-10.877,13.902-12.479,22.931c-0.207,1.164-0.786,2.808,0.93,3.306c1.572,0.456,3.414,1.066,4.801-0.484
			c5.662-6.327,10.217-13.245,11.56-21.887c0.63-4.055,0.941-4.252,4.831-4.973c1.236-0.229,1.944,0.135,2.339,1.325
			c0.738,2.226,0.473,4.38-0.323,6.524c-1.072,2.887-2.239,5.725-3.843,8.37c-0.527,0.869-1.102,2.018,0.079,2.667
			c1.073,0.59,2.316,0.534,3.1-0.806c0.95-1.623,1.901-3.237,2.58-5.003c2-5.208,5.444-9.452,9.088-13.555
			c0.437-0.492,0.972-1.243,1.657-0.87c0.784,0.426,0.246,1.247,0.023,1.842c-1.141,3.035-2.489,5.987-3.318,9.143
			c-0.693,2.638-0.732,5.224,0.065,7.834c0.635,2.079,2.025,3.115,4.175,3.054c4.741-0.135,9.134-1.307,12.651-4.699
			c1.169-1.128,2.112-2.043,3.322-0.121c0.21,0.334,0.675,0.636,1.099,0.325c0.388-0.284,0.365-0.763,0.12-1.156
			c-1.597-2.553-0.292-4.471,1.294-6.402C111.053,25.081,112.427,21.927,112.114,18.2z M65.761,25.711
			c-1.135,5.219-3.709,10.08-6.979,14.609c-0.648,0.898-1.392,1.726-2.1,2.579c-0.268,0.322-0.566,0.742-1.018,0.557
			c-0.146-0.06-0.18-0.638-0.113-0.945c1.465-6.664,3.563-13.021,8.811-17.804c0.301-0.274,0.565-0.778,1.027-0.618
			C66.033,24.31,65.683,24.928,65.761,25.711z M97.635,36.349c-0.023-0.177-0.087-0.372,0.235-0.391
			c0.019-0.001,0.071,0.115,0.059,0.127C97.836,36.179,97.735,36.263,97.635,36.349z M101.464,33.11
			c-0.02,0-0.033-0.001-0.058,0.001c0.02-0.009,0.04-0.019,0.059-0.028C101.465,33.092,101.464,33.101,101.464,33.11z
			 M102.24,32.634c-0.048-0.289,0.057-0.458,0.381-0.454C102.644,32.461,102.488,32.587,102.24,32.634z M102.653,32.124
			c-0.015-0.065-0.035-0.131-0.022-0.19c0.167-0.758,0.665-1.285,1.248-1.744c0.008-0.006,0.263,0.203,0.249,0.285
			C103.978,31.326,103.579,31.971,102.653,32.124z M106.973,24.561c0.2-1.046,0.464-2.267-0.685-2.665
			c-1.072-0.371-1.531,0.906-1.967,1.663c-0.806,1.4-1.44,2.9-2.15,4.356c-1.135,2.329-2.534,4.444-4.672,5.996
			c-1.235,0.896-1.843,0.46-1.989-0.902c-0.062-0.584-0.109-1.255,0.109-1.772c2.188-5.193,4.225-10.499,9.134-13.902
			c0.776-0.538,1.551-1.025,2.511-1.193c2.094-0.367,3.077,0.37,3.141,2.506c0.11,3.669-1.66,6.651-3.538,9.586
			C106.18,26.997,106.742,25.77,106.973,24.561z M218.314,37.295c-0.893-0.265-1.833-0.427-2.762-0.505
			c-4.01-0.334-7.929-0.942-11.691-2.543c-4.018-1.71-8.352-2.115-12.574-1.318c-3.885,0.733-7.787,0.858-12.09,1.354
			c-0.87,0-2.153,0.046-3.431-0.009c-3.165-0.136-4.387-1.371-4.831-4.49c-0.357-2.51,0.204-4.625,1.688-6.723
			c1.815-2.567,1.49-5.135-0.428-6.679c-1.686-1.357-4.47-1.023-6.495,0.998c-2.357,2.353-4.72,4.73-6.807,7.318
			c-2.67,3.31-5.302,6.649-5.818,11.206c-0.243,2.14-2.684,2.87-4.288,3.652c-1.16,0.565-0.948-1.738-1.693-2.564
			c-0.739-0.819-1.211-1.893-1.991-2.66c-1.156-1.138-1.117-2.065-0.102-3.283c2.483-2.98,3.427-6.397,2.798-10.289
			c-0.443-2.74-1.261-3.25-3.923-4.27c-4.295-1.646-9.402,5.362-8.809,9.621c0.139,1.002,1.071,1.891,2.141,1.946
			c1.108,0.056,0.739-1.143,0.979-1.791c0.998-2.692,2.357-5.146,4.685-6.9c1.442-1.086,2.299-0.768,2.557,0.776
			c0.432,2.582-2.35,8.651-4.539,9.942c-0.792,0.467-1.593,0.509-2.461,0.252c-1.31-0.389-2.553-0.029-3.709,0.551
			c-0.986,0.494-2.036,1.047-2.044,2.389c-0.009,1.448,0.815,2.388,2.034,3.012c1.284,0.657,2.607,0.831,3.916,0.078
			c0.961-0.552,1.973-1.061,2.814-1.766c1.162-0.974,1.923-0.741,2.589,0.499c1.228,2.287,1.074,4.793,1.084,7.255
			c0.001,0.392-0.508,0.866-0.888,1.167c-4.416,3.505-8.481,7.431-13.088,10.714c-4.027,2.87-7.149,6.607-9.162,11.161
			c-1.185,2.681-0.553,4.559,1.797,6.238c2.725,1.947,5.788,1.759,9.047-0.423c8.33-5.577,13.471-13.269,14.92-23.203
			c0.591-4.051,3.779-5.403,6.399-7.442c0.479-0.373,1.15-0.143,1.733,0.05c2.176,0.722,3.955,0.052,5.633-1.426
			c2.399-2.114,4.198-4.724,6.177-7.183c0.792-0.985,1.246-1.132,2.016,0.06c2.833,4.389,6.428,6.074,11.457,4.791
			c8.266-2.109,16.358-1.686,24.495,0.591c3.937,1.101,7.964,1.889,11.97,2.72c0.782,0.162,2.062,0.779,2.342-0.585
			C220.183,38.506,219.402,37.617,218.314,37.295z M137.67,33.035c-0.069,0.002-0.14-0.034-0.21-0.055
			c0.023-0.05,0.04-0.138,0.069-0.142c0.065-0.009,0.135,0.024,0.204,0.04C137.712,32.933,137.693,33.034,137.67,33.035z
			 M144.144,49.644c-2.766,8.53-6.882,16.018-15.569,19.887c-0.77,0.343-1.612,0.536-2.433,0.748
			c-1.227,0.317-1.828-0.085-1.358-2.072c0.993-2.493,2.288-5.525,4.578-8.056c3.986-4.405,9.041-7.517,13.485-11.365
			c0.298-0.258,0.832-0.578,1.098-0.471C144.558,48.56,144.279,49.228,144.144,49.644z M168.959,21.841
			c-2.636,4.248-6.185,7.658-9.953,10.866c-0.128,0.109-0.278,0.194-0.427,0.296c-0.507,0.143-0.581-0.216-0.474-0.534
			c0.161-0.478,0.391-0.948,0.675-1.365c2.547-3.752,5.695-6.982,8.877-10.178c0.439-0.441,1.079-1.14,1.671-0.681
			C169.733,20.558,169.269,21.341,168.959,21.841z M124.022,17.271c0.692,0.861,1.516,1.62,2.528,2.126
			c0.378,0.189,0.804,0.457,1.103-0.042c0.255-0.426,0.059-0.815-0.357-1.071c-1.099-0.676-2.012-1.552-2.892-2.496
			c-2.047-2.195-3.393-2.182-5.597-0.041c-2.123,2.062-3.359,4.736-4.669,7.294c-1.944,3.799-3.135,7.908-4.041,11.916
			c0.11,1.157,0.36,2.225,1.405,2.376c0.888,0.128,1.059-0.969,1.304-1.635c1.267-3.432,2.401-6.915,3.717-10.328
			c1.163-3.015,2.322-6.066,4.943-8.226C122.388,16.386,123.165,16.205,124.022,17.271z M126.785,22.401
			c-1.341,3.212-2.709,6.413-4.002,9.645c-0.543,1.358-0.673,2.754,1.04,3.421c1.768,0.688,2.295-0.782,2.7-1.922
			c1.166-3.281,2.144-6.625,3.541-9.828c0.528-1.211-0.619-2.65-2.176-2.598C127.347,21.147,127.051,21.763,126.785,22.401z
			 M134.181,15.293c0.504-0.663,2.314-0.022,2.141-1.226c-0.189-1.314-1.809-1.623-3.118-1.652c-0.76-0.017-1.814,0.172-1.712,1.087
			C131.632,14.757,132.79,15.129,134.181,15.293z"/>
	</g>
</g>
</svg>
