<?xml version="1.0" encoding="utf-8"?>
<!-- Generator: Adobe Illustrator 19.2.1, SVG Export Plug-In . SVG Version: 6.00 Build 0)  -->
<svg version="1.1" id="Layer_1" xmlns="http://www.w3.org/2000/svg" xmlns:xlink="http://www.w3.org/1999/xlink" x="0px" y="0px"
	 width="42px" height="39px" viewBox="0 0 42 39" style="enable-background:new 0 0 42 39;" xml:space="preserve">
<style type="text/css">
	.st0{fill-rule:evenodd;clip-rule:evenodd;fill:#313131;}
</style>
<path class="st0" d="M21,39c-10.2,0-15.4-2.2-18.6-7.5C0.6,28.4,0,23,0,19.5c0-3.5,0.6-8.9,2.4-12C5.6,2.2,10.8,0,21,0
	c10.2,0,15.4,2.2,18.6,7.5c1.8,3,2.4,8.5,2.4,12c0,3.5-0.6,8.9-2.4,12C36.4,36.8,31.2,39,21,39z M26.1,30.5c-1.1,0-2.8-0.5-3.6-2.4
	l-5-12.2c-1.1-2.8,1-5.3,3.5-5.3c1.1,0,2.8,0.5,3.6,2.4l5,12.2C30.7,27.9,28.6,30.5,26.1,30.5z M15.9,30.5c-1.1,0-2.8-0.5-3.6-2.4
	l-5-12.2c-1.1-2.8,1-5.3,3.5-5.3c1.1,0,2.8,0.5,3.6,2.4l5,12.2C20.5,27.9,18.4,30.5,15.9,30.5z M32.4,21.3c-1.1,0-2.8-0.5-3.6-2.4
	l-1.2-3c-1.1-2.8,1-5.3,3.5-5.3c1.1,0,2.8,0.5,3.6,2.4l1.2,3C37,18.7,34.9,21.3,32.4,21.3z"/>
</svg>
